<?xml version="1.0" encoding="UTF-8"?>
<svg version="1.1" viewBox="0 0 1024 1024" width="1024" height="1024" xmlns="http://www.w3.org/2000/svg">
<path transform="translate(400,352)" d="m0 0 7 1 8 10 18 20 7 8 7 7 8 10 11 12 8 10 1 3v25l5 10 12 14 19 19 5-1 9-9 7-8 8-8 9-14 1-11v-21l4-12 7-10 4-6 16-17 13-11 15-10 9-5h13l10 8 11 10 5 4v16l-8 21-12 22-10 13-11 12-11 7-8 3-6 1-24 1-9 7-9 10-11 14-8 8v6l44 44 8 7 64 64 3 6v15l-4 6-4 2-10 1-10-3-12-11-9-11-12-14-9-11-9-10-9-11-14-17-13-15-11-14-3-4 1 18 8 71v19l-2 3h-5v-18l-8-73-2-9-9 81-1 15v4l-5-1-2-5v-9l6-51 4-35v-10l-14 17-9 11-11 13-9 11-12 14-9 11-13 15-7 8-13 14-7 5-13 2-4-1-6-4-3-6v-10l6-12 16-16 7-6 5-6 8-7 78-78h2l-4-6-11-13-12-14-8-9-3-2h-19l-10-3-9-7-8-11-11-15-10-14-14-19-15-21v-6h6l7 8 7 9 9 10 13 17 8 10 7 1v-5l-5-5-12-14-7-9-11-13-10-13v-5l5-1 5 5 13 16 7 9 12 14 8 10 3 5v8l-4 5-2 1h-8l-2-1 12 16 5 6 9 4h18l8 3 16 16 9 11 12 14 9 11 24 28 8 10 8 9 10 13 9 10 8 10 9 10 8 10 11 13 10 11 6 7 8 4h10l3-3 1-6-4-10-8-9-8-7-71-71-8-7-4-5-6-5-5-5-12-13-33-33-7-8-6-8-2-5-1-28-8-11-8-9v-2h-2v7l-4 6-9 1-5-3-20-25-9-11-10-13-6-8 1-6h5l12 15 8 11 9 10 10 14 6 8 5-2-1-5-11-14-11-13-20-26-1-6zm221 11-11 6-14 10-10 8-14 14-9 12-8 16-1 34-6 11-13 14-7 8-8 8v2h-2l1 5 2 2 5-1 24-28 1-4 4-2 9-6 2-1 29-2 12-5 13-12 12-16 9-16 5-11 5-13 2-10-7-8-3-3h-2v-2l-13-10zm-120 160-8 7-72 72v2l-5 2-31 31-5 10 1 9 5 4h10l9-5 8-9v-2l3-1 9-11 1-3 3-1 4-5v-2l3-1 8-10 6-8 5-5 9-11 6-8 5-5 18-22 11-12 4-6-1-5-4-5z" fill="currentColor"/>
<path transform="translate(195,320)" d="m0 0 4 1 21 10 19 10 26 14 15 8 1 4-6 11h-6l-20-11-12-6-16-9h-2l6 4 7 8 22 22-1 6-3 6h-10l-36-5h-5l19 9 19 10 16 7-2 9-3 7-8-1-19-10-39-20-21-12-3-1 1-5 6-14 15 1 44 7 4 1v-2l-4-2-14-15-23-23 1-6z" fill="currentColor"/>
<path transform="translate(678,191)" d="m0 0 4 1 6 3 24 16 7 9 2 6v12l-4 9-6 8-6 5-5 2h-12v18l-2 20-1 2-4-1-6-4-5-4v-10l3-30-10-4-10 15-7 11-7-1-8-5 1-6 7-11 8-12 11-17 14-22zm6 23-8 12-3 5-1 5 10 7 3 2h11l7-8 1-10-5-6-8-6z" fill="currentColor"/>
<path transform="translate(489,257)" d="m0 0h46l18 2 24 5 21 6 22 9 16 8 16 9 18 13 11 9 12 11 19 19 15 20 10 15 9 15 12 27 7 22 5 23v6l-5-1-6-28-9-26-12-25-11-18-12-17-9-10-7-8-12-13-13-11-15-11-15-10-16-9-23-10-21-7-20-5-17-3-28-2h-11l-30 2-25 5-22 6-15 5-32 16-16 10-16 12-12 11-11 9-7 8-13 15-6 9-11 17-12 22-7 16-6 17-9 36-3-1v-11l5-20 10-30 9-19 9-15 7-11 11-14 10-13 18-18 11-10 13-10 12-8 11-7 19-10 25-10 18-6 17-4 19-3z" fill="currentColor"/>
<path transform="translate(254,546)" d="m0 0 5 2 5 26 10 30 9 20 12 21 14 19 11 13 9 10 15 15 17 13 11 8 12 7 19 10 16 7 31 10 19 4 24 3h42l25-4 22-5 19-6 22-9 22-12 10-7 14-10 14-12 12-11 10-10 10-13 9-12 10-16 13-25 5-12 8-25 6-28 4-1 1 2-4 22-6 22-10 26-13 24-13 19-11 14-12 13-9 10-12 11-13 10-11 8-10 6-14 8-14 7-20 8-24 7-20 4-14 2h-57l-15-2-23-5-20-6-20-8-19-9-21-13-8-6-10-8-14-12-18-18-9-11-13-17-13-22-12-25-7-19-6-24-2-10z" fill="currentColor"/>
<path transform="translate(352,186)" d="m0 0 7 1 26 26 3 2v2l4 2 16 16 8 7 11 11-2 4-11 5-4-1-12-12-1-2-5-1-22 12 3 15 1 9-11 6-5 1-4-15-12-52-5-23v-5l14-7zm5 23 1 9 6 23 4 1 13-7-1-4-19-19h-2l-1-3z" fill="currentColor"/>
<path transform="translate(269,238)" d="m0 0 4 1 8 7 1 4-7 8-14 14-2 1 2 5 7 7v2l6-2 18-18 5 2 7 7-1 6-16 16h-2l2 7 8 7 2 5 7-2 2-4 19-19 4 2 8 7-2 6-34 34-4-2-10-9-53-53-1-4 12-11z" fill="currentColor"/>
<path transform="translate(775,262)" d="m0 0 4 2 5 4 8 10 9 10 9 11v6l-8 7-6-1-11-13-5-6v-2h-2l-3-3-13 10 3 7 12 13 1 6-10 8-4-2-12-13-4-5-4 1-13 10 1 4 8 10 11 13-1 5-9 7-4-2-5-5-13-15-11-13-2-3 1-4 5-5 14-12 12-9 12-11 16-12z" fill="currentColor"/>
<path transform="translate(746,658)" d="m0 0h10l11 4 8 8 3 6v12l19 1 15 1 5 2-2 6-6 8h-10l-23-2h-6l-3 8 19 12 6 3-1 6-6 8-5-1-22-13-19-12-16-10-10-6 1-6 8-11 8-12 7-8zm1 16-8 7-6 10v2l11 7 10 5 4-5 5-8 1-10-4-5-5-3z" fill="currentColor"/>
<path transform="translate(331,719)" d="m0 0 5 1 10 8 12 9 5 5 4 7v17l-7 11-8 6-2 1-14 1-6 34-4 1-10-7v-9l3-20v-9l-5-4-3-1-7 11-8 10-2 3h-5l-6-5v-2l-3-1 2-5 13-16 11-14 10-13 13-16zm4 20-9 11-5 8 9 8 6 3 9-1 7-8v-8l-5-6-9-6z" fill="currentColor"/>
<path transform="translate(837,348)" d="m0 0h6l5 12 6 17 1 5v8l-2 8-6 9-10 7-7 2h-15l-10-5-6-5-6-12-3-8-29 11h-3l-5-13v-4l20-8 35-13 15-6zm-6 20-20 8-5 3 2 9 5 8 5 3h10l5-3 5-6 1-9-4-12z" fill="currentColor"/>
<path transform="translate(566,154)" d="m0 0 9 1 26 6 10 6 7 9 2 7v12l-2 8-6 10-9 6-4 1h-17l-14-3-7 28-1 1h-8l-9-2 1-8 10-37 7-25zm13 19-2 7-5 17v4l12 3h11l6-5 2-3v-12l-5-6-13-4z" fill="currentColor"/>
<path transform="translate(627,759)" d="m0 0h3l-1 8-14 40 4 1 18 11 21 13 5 3-1 3-12 5-8-1-10-7-17-10-8-4v10l6 14 2 5v5l-9 4h-6l-7-16-6-16-10-24-5-13-3-9 4-3 6-2h6l5 12 7 19v2h2l1-6 11-35 3-4z" fill="currentColor"/>
<path transform="translate(689,717)" d="m0 0 6 1 6 8-1 4-13 11-10 7h-2l6 9 3 4 6-1 13-11 3-3h5l4 5 3 4-1 4-13 11-6 4 1 5 6 8 2 2 5-1 13-10 9-7 5 1 6 8-1 5-18 14-13 10-5 4-4-2-6-5-11-14-14-17-10-12-10-13v-5l17-12 12-10z" fill="currentColor"/>
<path transform="translate(421,770)" d="m0 0 9 1 9 3v46l-1 35-1 8-15-4-1-23-16-4-13-3-2 5-8 10-8-1-8-3v-3h2l2-4 8-10 18-22 8-10 14-17zm2 21-12 14-6 9v3l14 4h4l1-13v-17z" fill="currentColor"/>
<path transform="translate(512,784)" d="m0 0h10l11 2 8 5 7 6-1 5-8 6h-5l-6-5-6-2-11 1-8 5-4 6-2 6v15l4 11 6 5 4 2h15l11-8 5 2 8 6-2 4-5 6-14 7h-21l-9-4-8-6-7-9-4-10-1-4v-19l4-11 5-8 4-5 14-8z" fill="currentColor"/>
<path transform="translate(448,154)" d="m0 0h16l1 2 7 66v7l15-3 9-1h13l1 3v14l-3 1-50 5-3-21-7-59v-13z" fill="currentColor"/>
<path transform="translate(277,649)" d="m0 0 4 1 16 25 10 14 5 8-1 5-7 4h-6l-8-13-2-4-4 1-21 13-19 12-14 9-4-1-7-11v-3l17-9 9-6 15-9 13-8 3-2-1-5-7-11v-5z" fill="currentColor"/>
<path transform="translate(234,510)" d="m0 0h85v7h-85z" fill="currentColor"/>
<path transform="translate(706,510)" d="m0 0h84l1 1v5l-2 1h-83z" fill="currentColor"/>
<path transform="translate(179,506)" d="m0 0h11l5 4v12h-2l-2 4h-11l-5-4-1-3v-7z" fill="currentColor"/>
<path transform="translate(834,506)" d="m0 0h11l5 5v9l-4 6h-12l-5-6v-8z" fill="currentColor"/>
</svg>
