<?xml version="1.0" encoding="UTF-8"?>
<svg version="1.1" viewBox="0 0 1024 1024" width="1024" height="1024" xmlns="http://www.w3.org/2000/svg">
  <path transform="translate(400,352)" d="m0 0 7 1 8 10 18 20 7 8 7 7 8 10 11 12 8 10 1 3v25l5 10 12 14 19 19 5-1 9-9 7-8 8-8 9-14 1-11v-21l4-12 7-10 4-6 16-17 13-11 15-10 9-5h13l10 8 11 10 5 4v16l-8 21-12 22-10 13-11 12-11 7-8 3-6 1-24 1-9 7-9 10-11 14-8 8v6l44 44 8 7 64 64 3 6v15l-4 6-4 2-10 1-10-3-12-11-9-11-12-14-9-11-9-10-9-11-14-17-13-15-11-14-3-4 1 18 8 71v19l-2 3h-5v-18l-8-73-2-9-9 81-1 15v4l-5-1-2-5v-9l6-51 4-35v-10l-14 17-9 11-11 13-9 11-12 14-9 11-13 15-7 8-13 14-7 5-13 2-4-1-6-4-3-6v-10l6-12 16-16 7-6 5-6 8-7 78-78h2l-4-6-11-13-12-14-8-9-3-2h-19l-10-3-9-7-8-11-11-15-10-14-14-19-15-21v-6h6l7 8 7 9 9 10 13 17 8 10 7 1v-5l-5-5-12-14-7-9-11-13-10-13v-5l5-1 5 5 13 16 7 9 12 14 8 10 3 5v8l-4 5-2 1h-8l-2-1 12 16 5 6 9 4h18l8 3 16 16 9 11 12 14 9 11 24 28 8 10 8 9 10 13 9 10 8 10 9 10 8 10 11 13 10 11 6 7 8 4h10l3-3 1-6-4-10-8-9-8-7-71-71-8-7-4-5-6-5-5-5-12-13-33-33-7-8-6-8-2-5-1-28-8-11-8-9v-2h-2v7l-4 6-9 1-5-3-20-25-9-11-10-13-6-8 1-6h5l12 15 8 11 9 10 10 14 6 8 5-2-1-5-11-14-11-13-20-26-1-6zm221 11-11 6-14 10-10 8-14 14-9 12-8 16-1 34-6 11-13 14-7 8-8 8v2h-2l1 5 2 2 5-1 24-28 1-4 4-2 9-6 2-1 29-2 12-5 13-12 12-16 9-16 5-11 5-13 2-10-7-8-3-3h-2v-2l-13-10zm-120 160-8 7-72 72v2l-5 2-31 31-5 10 1 9 5 4h10l9-5 8-9v-2l3-1 9-11 1-3 3-1 4-5v-2l3-1 8-10 6-8 5-5 9-11 6-8 5-5 18-22 11-12 4-6-1-5-4-5z" fill="currentColor"/>
</svg>
